<?xml version="1.0" encoding="UTF-8" standalone="no"?>
<svg
   xmlns:dc="http://purl.org/dc/elements/1.1/"
   xmlns:cc="http://creativecommons.org/ns#"
   xmlns:rdf="http://www.w3.org/1999/02/22-rdf-syntax-ns#"
   xmlns:svg="http://www.w3.org/2000/svg"
   xmlns="http://www.w3.org/2000/svg"
   xmlns:sodipodi="http://sodipodi.sourceforge.net/DTD/sodipodi-0.dtd"
   xmlns:inkscape="http://www.inkscape.org/namespaces/inkscape"
   width="16"
   height="16"
   viewBox="0 0 4.2333331 4.2333334"
   version="1.1"
   id="svg8"
   inkscape:version="1.0.2 (1.0.2+r75+1)"
   sodipodi:docname="calIcon.svg">
  <defs
     id="defs2" />
  <sodipodi:namedview
     id="base"
     pagecolor="#ffffff"
     bordercolor="#666666"
     borderopacity="1.0"
     inkscape:pageopacity="0.0"
     inkscape:pageshadow="2"
     inkscape:zoom="23.84375"
     inkscape:cx="4.5945388"
     inkscape:cy="6.1811653"
     inkscape:document-units="mm"
     inkscape:current-layer="layer1"
     inkscape:document-rotation="0"
     showgrid="false"
     units="px"
     inkscape:window-width="1278"
     inkscape:window-height="950"
     inkscape:window-x="0"
     inkscape:window-y="25"
     inkscape:window-maximized="0" />
  <metadata
     id="metadata5">
    <rdf:RDF>
      <cc:Work
         rdf:about="">
        <dc:format>image/svg+xml</dc:format>
        <dc:type
           rdf:resource="http://purl.org/dc/dcmitype/StillImage" />
        <dc:title></dc:title>
      </cc:Work>
    </rdf:RDF>
  </metadata>
  <g
     inkscape:label="Layer 1"
     inkscape:groupmode="layer"
     id="layer1">
    <path
       id="rect833"
       style="fill:#cbd2d9;fill-opacity:1;stroke-width:1.19594"
       d="M 0 0 L 0 16 L 16 16 L 16 0 L 0 0 z M 1.5703125 4.5371094 L 3.5703125 4.5371094 L 3.5703125 6.5371094 L 1.5703125 6.5371094 L 1.5703125 4.5371094 z M 4.2851562 4.5371094 L 6.2851562 4.5371094 L 6.2851562 6.5371094 L 4.2851562 6.5371094 L 4.2851562 4.5371094 z M 7 4.5371094 L 9 4.5371094 L 9 6.5371094 L 7 6.5371094 L 7 4.5371094 z M 9.7148438 4.5371094 L 11.714844 4.5371094 L 11.714844 6.5371094 L 9.7148438 6.5371094 L 9.7148438 4.5371094 z M 12.429688 4.5371094 L 14.429688 4.5371094 L 14.429688 6.5371094 L 12.429688 6.5371094 L 12.429688 4.5371094 z M 1.5703125 8.2480469 L 3.5703125 8.2480469 L 3.5703125 10.248047 L 1.5703125 10.248047 L 1.5703125 8.2480469 z M 4.2851562 8.2480469 L 6.2851562 8.2480469 L 6.2851562 10.248047 L 4.2851562 10.248047 L 4.2851562 8.2480469 z M 7 8.2480469 L 9 8.2480469 L 9 10.248047 L 7 10.248047 L 7 8.2480469 z M 9.7148438 8.2480469 L 11.714844 8.2480469 L 11.714844 10.248047 L 9.7148438 10.248047 L 9.7148438 8.2480469 z M 12.429688 8.2480469 L 14.429688 8.2480469 L 14.429688 10.248047 L 12.429688 10.248047 L 12.429688 8.2480469 z M 1.5703125 11.958984 L 3.5703125 11.958984 L 3.5703125 13.958984 L 1.5703125 13.958984 L 1.5703125 11.958984 z M 4.2851562 11.958984 L 6.2851562 11.958984 L 6.2851562 13.958984 L 4.2851562 13.958984 L 4.2851562 11.958984 z M 7 11.958984 L 9 11.958984 L 9 13.958984 L 7 13.958984 L 7 11.958984 z M 9.7148438 11.958984 L 11.714844 11.958984 L 11.714844 13.958984 L 9.7148438 13.958984 L 9.7148438 11.958984 z M 12.429688 11.958984 L 14.429688 11.958984 L 14.429688 13.958984 L 12.429688 13.958984 L 12.429688 11.958984 z "
       transform="scale(0.26458333)" />
  </g>
</svg>
